<?xml version="1.0" standalone="no"?><!DOCTYPE svg PUBLIC "-//W3C//DTD SVG 1.1//EN" "http://www.w3.org/Graphics/SVG/1.1/DTD/svg11.dtd"><svg t="1576258051809" class="icon" viewBox="0 0 1024 1024" version="1.1" xmlns="http://www.w3.org/2000/svg" p-id="1288" width="128" height="128" xmlns:xlink="http://www.w3.org/1999/xlink"><defs><style type="text/css"></style></defs><path d="M853.136762 130.303767a368.200485 368.200485 0 0 0-205.128776-62.866173c-121.709497 0-229.156162 62.281032-304.566314 156.013436-54.857045 68.571306-93.147262 165.704847-95.999828 276.552649v23.990814c2.852566 110.847802 41.142784 208.017914 95.999828 276.552649 75.446722 93.695833 182.856816 156.013436 304.566314 156.013436 74.861581 0 145.151741-22.857102 205.128776-62.866174A509.146519 509.146519 0 0 1 511.999086 1023.998171c-8.009129 0-16.566828 0-24.575956-0.585141C215.990471 1010.832481 0 786.832881 0 511.999086 0 229.156162 229.156162 0 511.999086 0h1.718854a511.30423 511.30423 0 0 1 339.418822 130.303767zM1023.998171 511.999086c0 149.138019-63.999886 282.842923-165.704847 376.575327a243.30928 243.30928 0 0 1-126.866059 35.986222c-52.553049 0-102.290103-17.151969-145.700311-48.0182 116.004364-42.276496 201.72764-189.147091 201.72764-364.579921 0-174.847688-85.138134-321.718283-201.142498-364.57992 43.44678-30.281089 92.56212-47.433058 145.151741-47.433058 46.299346 0 89.709554 13.129119 129.133483 37.156505a510.645945 510.645945 0 0 1 163.437423 374.856473z" fill="#ffffff" p-id="1289"></path></svg>